<?xml version="1.0" encoding="UTF-8" standalone="no"?>
<!-- This is a Stata 19.0 generated SVG file (http://www.stata.com) -->

<svg version="1.1" width="7.500in" height="4.500in" viewBox="0 0 5400 3240" xmlns="http://www.w3.org/2000/svg" xmlns:xlink="http://www.w3.org/1999/xlink">
	<desc>Stata Graph - Mn_hbox</desc>
	<rect x="0" y="0" width="5400" height="3240" style="fill:#FFFFFF;stroke:none"/>
	<rect x="0.00" y="0.00" width="5400.00" height="3240.00" style="fill:#FFFFFF"/>
	<rect x="3.24" y="3.24" width="5393.52" height="3233.52" style="fill:none;stroke:#FFFFFF;stroke-width:6.48"/>
	<line x1="1377.17" y1="2766.66" x2="1377.17" y2="2701.86" style="stroke:#F0F0F0;stroke-width:9.72"/>
	<line x1="1377.17" y1="2669.46" x2="1377.17" y2="2604.66" style="stroke:#F0F0F0;stroke-width:9.72"/>
	<line x1="1377.17" y1="2572.26" x2="1377.17" y2="2507.46" style="stroke:#F0F0F0;stroke-width:9.72"/>
	<line x1="1377.17" y1="2475.06" x2="1377.17" y2="2410.26" style="stroke:#F0F0F0;stroke-width:9.72"/>
	<line x1="1377.17" y1="2377.86" x2="1377.17" y2="2313.06" style="stroke:#F0F0F0;stroke-width:9.72"/>
	<line x1="1377.17" y1="2280.66" x2="1377.17" y2="2215.86" style="stroke:#F0F0F0;stroke-width:9.72"/>
	<line x1="1377.17" y1="2183.46" x2="1377.17" y2="2118.66" style="stroke:#F0F0F0;stroke-width:9.72"/>
	<line x1="1377.17" y1="2086.26" x2="1377.17" y2="2021.46" style="stroke:#F0F0F0;stroke-width:9.72"/>
	<line x1="1377.17" y1="1989.06" x2="1377.17" y2="1924.26" style="stroke:#F0F0F0;stroke-width:9.72"/>
	<line x1="1377.17" y1="1891.86" x2="1377.17" y2="1827.06" style="stroke:#F0F0F0;stroke-width:9.72"/>
	<line x1="1377.17" y1="1794.66" x2="1377.17" y2="1729.86" style="stroke:#F0F0F0;stroke-width:9.72"/>
	<line x1="1377.17" y1="1697.46" x2="1377.17" y2="1632.66" style="stroke:#F0F0F0;stroke-width:9.72"/>
	<line x1="1377.17" y1="1600.26" x2="1377.17" y2="1535.46" style="stroke:#F0F0F0;stroke-width:9.72"/>
	<line x1="1377.17" y1="1503.06" x2="1377.17" y2="1438.26" style="stroke:#F0F0F0;stroke-width:9.72"/>
	<line x1="1377.17" y1="1405.86" x2="1377.17" y2="1341.06" style="stroke:#F0F0F0;stroke-width:9.72"/>
	<line x1="1377.17" y1="1308.66" x2="1377.17" y2="1243.86" style="stroke:#F0F0F0;stroke-width:9.72"/>
	<line x1="1377.17" y1="1211.46" x2="1377.17" y2="1146.66" style="stroke:#F0F0F0;stroke-width:9.72"/>
	<line x1="1377.17" y1="1114.26" x2="1377.17" y2="1049.46" style="stroke:#F0F0F0;stroke-width:9.72"/>
	<line x1="1377.17" y1="1017.06" x2="1377.17" y2="952.26" style="stroke:#F0F0F0;stroke-width:9.72"/>
	<line x1="1377.17" y1="919.86" x2="1377.17" y2="855.06" style="stroke:#F0F0F0;stroke-width:9.72"/>
	<line x1="1377.17" y1="822.66" x2="1377.17" y2="757.86" style="stroke:#F0F0F0;stroke-width:9.72"/>
	<line x1="1377.17" y1="725.46" x2="1377.17" y2="660.66" style="stroke:#F0F0F0;stroke-width:9.72"/>
	<line x1="1377.17" y1="628.26" x2="1377.17" y2="563.46" style="stroke:#F0F0F0;stroke-width:9.72"/>
	<line x1="1377.17" y1="531.06" x2="1377.17" y2="466.26" style="stroke:#F0F0F0;stroke-width:9.72"/>
	<line x1="1377.17" y1="433.86" x2="1377.17" y2="369.06" style="stroke:#F0F0F0;stroke-width:9.72"/>
	<line x1="1377.17" y1="336.66" x2="1377.17" y2="271.86" style="stroke:#F0F0F0;stroke-width:9.72"/>
	<line x1="1377.17" y1="239.46" x2="1377.17" y2="174.66" style="stroke:#F0F0F0;stroke-width:9.72"/>
	<line x1="1377.17" y1="142.26" x2="1377.17" y2="113.40" style="stroke:#F0F0F0;stroke-width:9.72"/>
	<line x1="1851.69" y1="2766.66" x2="1851.69" y2="2701.86" style="stroke:#F0F0F0;stroke-width:9.72"/>
	<line x1="1851.69" y1="2669.46" x2="1851.69" y2="2604.66" style="stroke:#F0F0F0;stroke-width:9.72"/>
	<line x1="1851.69" y1="2572.26" x2="1851.69" y2="2507.46" style="stroke:#F0F0F0;stroke-width:9.72"/>
	<line x1="1851.69" y1="2475.06" x2="1851.69" y2="2410.26" style="stroke:#F0F0F0;stroke-width:9.72"/>
	<line x1="1851.69" y1="2377.86" x2="1851.69" y2="2313.06" style="stroke:#F0F0F0;stroke-width:9.72"/>
	<line x1="1851.69" y1="2280.66" x2="1851.69" y2="2215.86" style="stroke:#F0F0F0;stroke-width:9.72"/>
	<line x1="1851.69" y1="2183.46" x2="1851.69" y2="2118.66" style="stroke:#F0F0F0;stroke-width:9.72"/>
	<line x1="1851.69" y1="2086.26" x2="1851.69" y2="2021.46" style="stroke:#F0F0F0;stroke-width:9.72"/>
	<line x1="1851.69" y1="1989.06" x2="1851.69" y2="1924.26" style="stroke:#F0F0F0;stroke-width:9.72"/>
	<line x1="1851.69" y1="1891.86" x2="1851.69" y2="1827.06" style="stroke:#F0F0F0;stroke-width:9.72"/>
	<line x1="1851.69" y1="1794.66" x2="1851.69" y2="1729.86" style="stroke:#F0F0F0;stroke-width:9.72"/>
	<line x1="1851.69" y1="1697.46" x2="1851.69" y2="1632.66" style="stroke:#F0F0F0;stroke-width:9.72"/>
	<line x1="1851.69" y1="1600.26" x2="1851.69" y2="1535.46" style="stroke:#F0F0F0;stroke-width:9.72"/>
	<line x1="1851.69" y1="1503.06" x2="1851.69" y2="1438.26" style="stroke:#F0F0F0;stroke-width:9.72"/>
	<line x1="1851.69" y1="1405.86" x2="1851.69" y2="1341.06" style="stroke:#F0F0F0;stroke-width:9.72"/>
	<line x1="1851.69" y1="1308.66" x2="1851.69" y2="1243.86" style="stroke:#F0F0F0;stroke-width:9.72"/>
	<line x1="1851.69" y1="1211.46" x2="1851.69" y2="1146.66" style="stroke:#F0F0F0;stroke-width:9.72"/>
	<line x1="1851.69" y1="1114.26" x2="1851.69" y2="1049.46" style="stroke:#F0F0F0;stroke-width:9.72"/>
	<line x1="1851.69" y1="1017.06" x2="1851.69" y2="952.26" style="stroke:#F0F0F0;stroke-width:9.72"/>
	<line x1="1851.69" y1="919.86" x2="1851.69" y2="855.06" style="stroke:#F0F0F0;stroke-width:9.72"/>
	<line x1="1851.69" y1="822.66" x2="1851.69" y2="757.86" style="stroke:#F0F0F0;stroke-width:9.72"/>
	<line x1="1851.69" y1="725.46" x2="1851.69" y2="660.66" style="stroke:#F0F0F0;stroke-width:9.72"/>
	<line x1="1851.69" y1="628.26" x2="1851.69" y2="563.46" style="stroke:#F0F0F0;stroke-width:9.72"/>
	<line x1="1851.69" y1="531.06" x2="1851.69" y2="466.26" style="stroke:#F0F0F0;stroke-width:9.72"/>
	<line x1="1851.69" y1="433.86" x2="1851.69" y2="369.06" style="stroke:#F0F0F0;stroke-width:9.72"/>
	<line x1="1851.69" y1="336.66" x2="1851.69" y2="271.86" style="stroke:#F0F0F0;stroke-width:9.72"/>
	<line x1="1851.69" y1="239.46" x2="1851.69" y2="174.66" style="stroke:#F0F0F0;stroke-width:9.72"/>
	<line x1="1851.69" y1="142.26" x2="1851.69" y2="113.40" style="stroke:#F0F0F0;stroke-width:9.72"/>
	<line x1="2136.38" y1="2766.66" x2="2136.38" y2="2701.86" style="stroke:#F0F0F0;stroke-width:9.72"/>
	<line x1="2136.38" y1="2669.46" x2="2136.38" y2="2604.66" style="stroke:#F0F0F0;stroke-width:9.72"/>
	<line x1="2136.38" y1="2572.26" x2="2136.38" y2="2507.46" style="stroke:#F0F0F0;stroke-width:9.72"/>
	<line x1="2136.38" y1="2475.06" x2="2136.38" y2="2410.26" style="stroke:#F0F0F0;stroke-width:9.72"/>
	<line x1="2136.38" y1="2377.86" x2="2136.38" y2="2313.06" style="stroke:#F0F0F0;stroke-width:9.72"/>
	<line x1="2136.38" y1="2280.66" x2="2136.38" y2="2215.86" style="stroke:#F0F0F0;stroke-width:9.72"/>
	<line x1="2136.38" y1="2183.46" x2="2136.38" y2="2118.66" style="stroke:#F0F0F0;stroke-width:9.72"/>
	<line x1="2136.38" y1="2086.26" x2="2136.38" y2="2021.46" style="stroke:#F0F0F0;stroke-width:9.72"/>
	<line x1="2136.38" y1="1989.06" x2="2136.38" y2="1924.26" style="stroke:#F0F0F0;stroke-width:9.72"/>
	<line x1="2136.38" y1="1891.86" x2="2136.38" y2="1827.06" style="stroke:#F0F0F0;stroke-width:9.72"/>
	<line x1="2136.38" y1="1794.66" x2="2136.38" y2="1729.86" style="stroke:#F0F0F0;stroke-width:9.72"/>
	<line x1="2136.38" y1="1697.46" x2="2136.38" y2="1632.66" style="stroke:#F0F0F0;stroke-width:9.72"/>
	<line x1="2136.38" y1="1600.26" x2="2136.38" y2="1535.46" style="stroke:#F0F0F0;stroke-width:9.72"/>
	<line x1="2136.38" y1="1503.06" x2="2136.38" y2="1438.26" style="stroke:#F0F0F0;stroke-width:9.72"/>
	<line x1="2136.38" y1="1405.86" x2="2136.38" y2="1341.06" style="stroke:#F0F0F0;stroke-width:9.72"/>
	<line x1="2136.38" y1="1308.66" x2="2136.38" y2="1243.86" style="stroke:#F0F0F0;stroke-width:9.72"/>
	<line x1="2136.38" y1="1211.46" x2="2136.38" y2="1146.66" style="stroke:#F0F0F0;stroke-width:9.72"/>
	<line x1="2136.38" y1="1114.26" x2="2136.38" y2="1049.46" style="stroke:#F0F0F0;stroke-width:9.72"/>
	<line x1="2136.38" y1="1017.06" x2="2136.38" y2="952.26" style="stroke:#F0F0F0;stroke-width:9.72"/>
	<line x1="2136.38" y1="919.86" x2="2136.38" y2="855.06" style="stroke:#F0F0F0;stroke-width:9.72"/>
	<line x1="2136.38" y1="822.66" x2="2136.38" y2="757.86" style="stroke:#F0F0F0;stroke-width:9.72"/>
	<line x1="2136.38" y1="725.46" x2="2136.38" y2="660.66" style="stroke:#F0F0F0;stroke-width:9.72"/>
	<line x1="2136.38" y1="628.26" x2="2136.38" y2="563.46" style="stroke:#F0F0F0;stroke-width:9.72"/>
	<line x1="2136.38" y1="531.06" x2="2136.38" y2="466.26" style="stroke:#F0F0F0;stroke-width:9.72"/>
	<line x1="2136.38" y1="433.86" x2="2136.38" y2="369.06" style="stroke:#F0F0F0;stroke-width:9.72"/>
	<line x1="2136.38" y1="336.66" x2="2136.38" y2="271.86" style="stroke:#F0F0F0;stroke-width:9.72"/>
	<line x1="2136.38" y1="239.46" x2="2136.38" y2="174.66" style="stroke:#F0F0F0;stroke-width:9.72"/>
	<line x1="2136.38" y1="142.26" x2="2136.38" y2="113.40" style="stroke:#F0F0F0;stroke-width:9.72"/>
	<line x1="2326.05" y1="2766.66" x2="2326.05" y2="2701.86" style="stroke:#F0F0F0;stroke-width:9.72"/>
	<line x1="2326.05" y1="2669.46" x2="2326.05" y2="2604.66" style="stroke:#F0F0F0;stroke-width:9.72"/>
	<line x1="2326.05" y1="2572.26" x2="2326.05" y2="2507.46" style="stroke:#F0F0F0;stroke-width:9.72"/>
	<line x1="2326.05" y1="2475.06" x2="2326.05" y2="2410.26" style="stroke:#F0F0F0;stroke-width:9.72"/>
	<line x1="2326.05" y1="2377.86" x2="2326.05" y2="2313.06" style="stroke:#F0F0F0;stroke-width:9.72"/>
	<line x1="2326.05" y1="2280.66" x2="2326.05" y2="2215.86" style="stroke:#F0F0F0;stroke-width:9.72"/>
	<line x1="2326.05" y1="2183.46" x2="2326.05" y2="2118.66" style="stroke:#F0F0F0;stroke-width:9.72"/>
	<line x1="2326.05" y1="2086.26" x2="2326.05" y2="2021.46" style="stroke:#F0F0F0;stroke-width:9.72"/>
	<line x1="2326.05" y1="1989.06" x2="2326.05" y2="1924.26" style="stroke:#F0F0F0;stroke-width:9.72"/>
	<line x1="2326.05" y1="1891.86" x2="2326.05" y2="1827.06" style="stroke:#F0F0F0;stroke-width:9.72"/>
	<line x1="2326.05" y1="1794.66" x2="2326.05" y2="1729.86" style="stroke:#F0F0F0;stroke-width:9.72"/>
	<line x1="2326.05" y1="1697.46" x2="2326.05" y2="1632.66" style="stroke:#F0F0F0;stroke-width:9.72"/>
	<line x1="2326.05" y1="1600.26" x2="2326.05" y2="1535.46" style="stroke:#F0F0F0;stroke-width:9.72"/>
	<line x1="2326.05" y1="1503.06" x2="2326.05" y2="1438.26" style="stroke:#F0F0F0;stroke-width:9.72"/>
	<line x1="2326.05" y1="1405.86" x2="2326.05" y2="1341.06" style="stroke:#F0F0F0;stroke-width:9.72"/>
	<line x1="2326.05" y1="1308.66" x2="2326.05" y2="1243.86" style="stroke:#F0F0F0;stroke-width:9.72"/>
	<line x1="2326.05" y1="1211.46" x2="2326.05" y2="1146.66" style="stroke:#F0F0F0;stroke-width:9.72"/>
	<line x1="2326.05" y1="1114.26" x2="2326.05" y2="1049.46" style="stroke:#F0F0F0;stroke-width:9.72"/>
	<line x1="2326.05" y1="1017.06" x2="2326.05" y2="952.26" style="stroke:#F0F0F0;stroke-width:9.72"/>
	<line x1="2326.05" y1="919.86" x2="2326.05" y2="855.06" style="stroke:#F0F0F0;stroke-width:9.72"/>
	<line x1="2326.05" y1="822.66" x2="2326.05" y2="757.86" style="stroke:#F0F0F0;stroke-width:9.72"/>
	<line x1="2326.05" y1="725.46" x2="2326.05" y2="660.66" style="stroke:#F0F0F0;stroke-width:9.72"/>
	<line x1="2326.05" y1="628.26" x2="2326.05" y2="563.46" style="stroke:#F0F0F0;stroke-width:9.72"/>
	<line x1="2326.05" y1="531.06" x2="2326.05" y2="466.26" style="stroke:#F0F0F0;stroke-width:9.72"/>
	<line x1="2326.05" y1="433.86" x2="2326.05" y2="369.06" style="stroke:#F0F0F0;stroke-width:9.72"/>
	<line x1="2326.05" y1="336.66" x2="2326.05" y2="271.86" style="stroke:#F0F0F0;stroke-width:9.72"/>
	<line x1="2326.05" y1="239.46" x2="2326.05" y2="174.66" style="stroke:#F0F0F0;stroke-width:9.72"/>
	<line x1="2326.05" y1="142.26" x2="2326.05" y2="113.40" style="stroke:#F0F0F0;stroke-width:9.72"/>
	<line x1="3275.10" y1="2766.66" x2="3275.10" y2="2701.86" style="stroke:#F0F0F0;stroke-width:9.72"/>
	<line x1="3275.10" y1="2669.46" x2="3275.10" y2="2604.66" style="stroke:#F0F0F0;stroke-width:9.72"/>
	<line x1="3275.10" y1="2572.26" x2="3275.10" y2="2507.46" style="stroke:#F0F0F0;stroke-width:9.72"/>
	<line x1="3275.10" y1="2475.06" x2="3275.10" y2="2410.26" style="stroke:#F0F0F0;stroke-width:9.72"/>
	<line x1="3275.10" y1="2377.86" x2="3275.10" y2="2313.06" style="stroke:#F0F0F0;stroke-width:9.72"/>
	<line x1="3275.10" y1="2280.66" x2="3275.10" y2="2215.86" style="stroke:#F0F0F0;stroke-width:9.72"/>
	<line x1="3275.10" y1="2183.46" x2="3275.10" y2="2118.66" style="stroke:#F0F0F0;stroke-width:9.72"/>
	<line x1="3275.10" y1="2086.26" x2="3275.10" y2="2021.46" style="stroke:#F0F0F0;stroke-width:9.72"/>
	<line x1="3275.10" y1="1989.06" x2="3275.10" y2="1924.26" style="stroke:#F0F0F0;stroke-width:9.72"/>
	<line x1="3275.10" y1="1891.86" x2="3275.10" y2="1827.06" style="stroke:#F0F0F0;stroke-width:9.72"/>
	<line x1="3275.10" y1="1794.66" x2="3275.10" y2="1729.86" style="stroke:#F0F0F0;stroke-width:9.72"/>
	<line x1="3275.10" y1="1697.46" x2="3275.10" y2="1632.66" style="stroke:#F0F0F0;stroke-width:9.72"/>
	<line x1="3275.10" y1="1600.26" x2="3275.10" y2="1535.46" style="stroke:#F0F0F0;stroke-width:9.72"/>
	<line x1="3275.10" y1="1503.06" x2="3275.10" y2="1438.26" style="stroke:#F0F0F0;stroke-width:9.72"/>
	<line x1="3275.10" y1="1405.86" x2="3275.10" y2="1341.06" style="stroke:#F0F0F0;stroke-width:9.72"/>
	<line x1="3275.10" y1="1308.66" x2="3275.10" y2="1243.86" style="stroke:#F0F0F0;stroke-width:9.72"/>
	<line x1="3275.10" y1="1211.46" x2="3275.10" y2="1146.66" style="stroke:#F0F0F0;stroke-width:9.72"/>
	<line x1="3275.10" y1="1114.26" x2="3275.10" y2="1049.46" style="stroke:#F0F0F0;stroke-width:9.72"/>
	<line x1="3275.10" y1="1017.06" x2="3275.10" y2="952.26" style="stroke:#F0F0F0;stroke-width:9.72"/>
	<line x1="3275.10" y1="919.86" x2="3275.10" y2="855.06" style="stroke:#F0F0F0;stroke-width:9.72"/>
	<line x1="3275.10" y1="822.66" x2="3275.10" y2="757.86" style="stroke:#F0F0F0;stroke-width:9.72"/>
	<line x1="3275.10" y1="725.46" x2="3275.10" y2="660.66" style="stroke:#F0F0F0;stroke-width:9.72"/>
	<line x1="3275.10" y1="628.26" x2="3275.10" y2="563.46" style="stroke:#F0F0F0;stroke-width:9.72"/>
	<line x1="3275.10" y1="531.06" x2="3275.10" y2="466.26" style="stroke:#F0F0F0;stroke-width:9.72"/>
	<line x1="3275.10" y1="433.86" x2="3275.10" y2="369.06" style="stroke:#F0F0F0;stroke-width:9.72"/>
	<line x1="3275.10" y1="336.66" x2="3275.10" y2="271.86" style="stroke:#F0F0F0;stroke-width:9.72"/>
	<line x1="3275.10" y1="239.46" x2="3275.10" y2="174.66" style="stroke:#F0F0F0;stroke-width:9.72"/>
	<line x1="3275.10" y1="142.26" x2="3275.10" y2="113.40" style="stroke:#F0F0F0;stroke-width:9.72"/>
	<line x1="4224.15" y1="2766.66" x2="4224.15" y2="2701.86" style="stroke:#F0F0F0;stroke-width:9.72"/>
	<line x1="4224.15" y1="2669.46" x2="4224.15" y2="2604.66" style="stroke:#F0F0F0;stroke-width:9.72"/>
	<line x1="4224.15" y1="2572.26" x2="4224.15" y2="2507.46" style="stroke:#F0F0F0;stroke-width:9.72"/>
	<line x1="4224.15" y1="2475.06" x2="4224.15" y2="2410.26" style="stroke:#F0F0F0;stroke-width:9.72"/>
	<line x1="4224.15" y1="2377.86" x2="4224.15" y2="2313.06" style="stroke:#F0F0F0;stroke-width:9.72"/>
	<line x1="4224.15" y1="2280.66" x2="4224.15" y2="2215.86" style="stroke:#F0F0F0;stroke-width:9.72"/>
	<line x1="4224.15" y1="2183.46" x2="4224.15" y2="2118.66" style="stroke:#F0F0F0;stroke-width:9.72"/>
	<line x1="4224.15" y1="2086.26" x2="4224.15" y2="2021.46" style="stroke:#F0F0F0;stroke-width:9.72"/>
	<line x1="4224.15" y1="1989.06" x2="4224.15" y2="1924.26" style="stroke:#F0F0F0;stroke-width:9.72"/>
	<line x1="4224.15" y1="1891.86" x2="4224.15" y2="1827.06" style="stroke:#F0F0F0;stroke-width:9.72"/>
	<line x1="4224.15" y1="1794.66" x2="4224.15" y2="1729.86" style="stroke:#F0F0F0;stroke-width:9.72"/>
	<line x1="4224.15" y1="1697.46" x2="4224.15" y2="1632.66" style="stroke:#F0F0F0;stroke-width:9.72"/>
	<line x1="4224.15" y1="1600.26" x2="4224.15" y2="1535.46" style="stroke:#F0F0F0;stroke-width:9.72"/>
	<line x1="4224.15" y1="1503.06" x2="4224.15" y2="1438.26" style="stroke:#F0F0F0;stroke-width:9.72"/>
	<line x1="4224.15" y1="1405.86" x2="4224.15" y2="1341.06" style="stroke:#F0F0F0;stroke-width:9.72"/>
	<line x1="4224.15" y1="1308.66" x2="4224.15" y2="1243.86" style="stroke:#F0F0F0;stroke-width:9.72"/>
	<line x1="4224.15" y1="1211.46" x2="4224.15" y2="1146.66" style="stroke:#F0F0F0;stroke-width:9.72"/>
	<line x1="4224.15" y1="1114.26" x2="4224.15" y2="1049.46" style="stroke:#F0F0F0;stroke-width:9.72"/>
	<line x1="4224.15" y1="1017.06" x2="4224.15" y2="952.26" style="stroke:#F0F0F0;stroke-width:9.72"/>
	<line x1="4224.15" y1="919.86" x2="4224.15" y2="855.06" style="stroke:#F0F0F0;stroke-width:9.72"/>
	<line x1="4224.15" y1="822.66" x2="4224.15" y2="757.86" style="stroke:#F0F0F0;stroke-width:9.72"/>
	<line x1="4224.15" y1="725.46" x2="4224.15" y2="660.66" style="stroke:#F0F0F0;stroke-width:9.72"/>
	<line x1="4224.15" y1="628.26" x2="4224.15" y2="563.46" style="stroke:#F0F0F0;stroke-width:9.72"/>
	<line x1="4224.15" y1="531.06" x2="4224.15" y2="466.26" style="stroke:#F0F0F0;stroke-width:9.72"/>
	<line x1="4224.15" y1="433.86" x2="4224.15" y2="369.06" style="stroke:#F0F0F0;stroke-width:9.72"/>
	<line x1="4224.15" y1="336.66" x2="4224.15" y2="271.86" style="stroke:#F0F0F0;stroke-width:9.72"/>
	<line x1="4224.15" y1="239.46" x2="4224.15" y2="174.66" style="stroke:#F0F0F0;stroke-width:9.72"/>
	<line x1="4224.15" y1="142.26" x2="4224.15" y2="113.40" style="stroke:#F0F0F0;stroke-width:9.72"/>
	<line x1="5173.20" y1="2766.66" x2="5173.20" y2="2701.86" style="stroke:#F0F0F0;stroke-width:9.72"/>
	<line x1="5173.20" y1="2669.46" x2="5173.20" y2="2604.66" style="stroke:#F0F0F0;stroke-width:9.72"/>
	<line x1="5173.20" y1="2572.26" x2="5173.20" y2="2507.46" style="stroke:#F0F0F0;stroke-width:9.72"/>
	<line x1="5173.20" y1="2475.06" x2="5173.20" y2="2410.26" style="stroke:#F0F0F0;stroke-width:9.72"/>
	<line x1="5173.20" y1="2377.86" x2="5173.20" y2="2313.06" style="stroke:#F0F0F0;stroke-width:9.72"/>
	<line x1="5173.20" y1="2280.66" x2="5173.20" y2="2215.86" style="stroke:#F0F0F0;stroke-width:9.72"/>
	<line x1="5173.20" y1="2183.46" x2="5173.20" y2="2118.66" style="stroke:#F0F0F0;stroke-width:9.72"/>
	<line x1="5173.20" y1="2086.26" x2="5173.20" y2="2021.46" style="stroke:#F0F0F0;stroke-width:9.72"/>
	<line x1="5173.20" y1="1989.06" x2="5173.20" y2="1924.26" style="stroke:#F0F0F0;stroke-width:9.72"/>
	<line x1="5173.20" y1="1891.86" x2="5173.20" y2="1827.06" style="stroke:#F0F0F0;stroke-width:9.72"/>
	<line x1="5173.20" y1="1794.66" x2="5173.20" y2="1729.86" style="stroke:#F0F0F0;stroke-width:9.72"/>
	<line x1="5173.20" y1="1697.46" x2="5173.20" y2="1632.66" style="stroke:#F0F0F0;stroke-width:9.72"/>
	<line x1="5173.20" y1="1600.26" x2="5173.20" y2="1535.46" style="stroke:#F0F0F0;stroke-width:9.72"/>
	<line x1="5173.20" y1="1503.06" x2="5173.20" y2="1438.26" style="stroke:#F0F0F0;stroke-width:9.72"/>
	<line x1="5173.20" y1="1405.86" x2="5173.20" y2="1341.06" style="stroke:#F0F0F0;stroke-width:9.72"/>
	<line x1="5173.20" y1="1308.66" x2="5173.20" y2="1243.86" style="stroke:#F0F0F0;stroke-width:9.72"/>
	<line x1="5173.20" y1="1211.46" x2="5173.20" y2="1146.66" style="stroke:#F0F0F0;stroke-width:9.72"/>
	<line x1="5173.20" y1="1114.26" x2="5173.20" y2="1049.46" style="stroke:#F0F0F0;stroke-width:9.72"/>
	<line x1="5173.20" y1="1017.06" x2="5173.20" y2="952.26" style="stroke:#F0F0F0;stroke-width:9.72"/>
	<line x1="5173.20" y1="919.86" x2="5173.20" y2="855.06" style="stroke:#F0F0F0;stroke-width:9.72"/>
	<line x1="5173.20" y1="822.66" x2="5173.20" y2="757.86" style="stroke:#F0F0F0;stroke-width:9.72"/>
	<line x1="5173.20" y1="725.46" x2="5173.20" y2="660.66" style="stroke:#F0F0F0;stroke-width:9.72"/>
	<line x1="5173.20" y1="628.26" x2="5173.20" y2="563.46" style="stroke:#F0F0F0;stroke-width:9.72"/>
	<line x1="5173.20" y1="531.06" x2="5173.20" y2="466.26" style="stroke:#F0F0F0;stroke-width:9.72"/>
	<line x1="5173.20" y1="433.86" x2="5173.20" y2="369.06" style="stroke:#F0F0F0;stroke-width:9.72"/>
	<line x1="5173.20" y1="336.66" x2="5173.20" y2="271.86" style="stroke:#F0F0F0;stroke-width:9.72"/>
	<line x1="5173.20" y1="239.46" x2="5173.20" y2="174.66" style="stroke:#F0F0F0;stroke-width:9.72"/>
	<line x1="5173.20" y1="142.26" x2="5173.20" y2="113.40" style="stroke:#F0F0F0;stroke-width:9.72"/>
	<line x1="1851.69" y1="2766.66" x2="1851.69" y2="2740.67" style="stroke:#FF0000;stroke-width:9.72"/>
	<line x1="1851.69" y1="2718.06" x2="1851.69" y2="2692.07" style="stroke:#FF0000;stroke-width:9.72"/>
	<line x1="1851.69" y1="2669.46" x2="1851.69" y2="2643.47" style="stroke:#FF0000;stroke-width:9.72"/>
	<line x1="1851.69" y1="2620.86" x2="1851.69" y2="2594.87" style="stroke:#FF0000;stroke-width:9.72"/>
	<line x1="1851.69" y1="2572.26" x2="1851.69" y2="2546.27" style="stroke:#FF0000;stroke-width:9.72"/>
	<line x1="1851.69" y1="2523.66" x2="1851.69" y2="2497.67" style="stroke:#FF0000;stroke-width:9.72"/>
	<line x1="1851.69" y1="2475.06" x2="1851.69" y2="2449.07" style="stroke:#FF0000;stroke-width:9.72"/>
	<line x1="1851.69" y1="2426.46" x2="1851.69" y2="2400.47" style="stroke:#FF0000;stroke-width:9.72"/>
	<line x1="1851.69" y1="2377.86" x2="1851.69" y2="2351.87" style="stroke:#FF0000;stroke-width:9.72"/>
	<line x1="1851.69" y1="2329.26" x2="1851.69" y2="2303.27" style="stroke:#FF0000;stroke-width:9.72"/>
	<line x1="1851.69" y1="2280.66" x2="1851.69" y2="2254.67" style="stroke:#FF0000;stroke-width:9.72"/>
	<line x1="1851.69" y1="2232.06" x2="1851.69" y2="2206.07" style="stroke:#FF0000;stroke-width:9.72"/>
	<line x1="1851.69" y1="2183.46" x2="1851.69" y2="2157.47" style="stroke:#FF0000;stroke-width:9.72"/>
	<line x1="1851.69" y1="2134.86" x2="1851.69" y2="2108.87" style="stroke:#FF0000;stroke-width:9.72"/>
	<line x1="1851.69" y1="2086.26" x2="1851.69" y2="2060.27" style="stroke:#FF0000;stroke-width:9.72"/>
	<line x1="1851.69" y1="2037.66" x2="1851.69" y2="2011.67" style="stroke:#FF0000;stroke-width:9.72"/>
	<line x1="1851.69" y1="1989.06" x2="1851.69" y2="1963.07" style="stroke:#FF0000;stroke-width:9.72"/>
	<line x1="1851.69" y1="1940.46" x2="1851.69" y2="1914.47" style="stroke:#FF0000;stroke-width:9.72"/>
	<line x1="1851.69" y1="1891.86" x2="1851.69" y2="1865.87" style="stroke:#FF0000;stroke-width:9.72"/>
	<line x1="1851.69" y1="1843.26" x2="1851.69" y2="1817.27" style="stroke:#FF0000;stroke-width:9.72"/>
	<line x1="1851.69" y1="1794.66" x2="1851.69" y2="1768.67" style="stroke:#FF0000;stroke-width:9.72"/>
	<line x1="1851.69" y1="1746.06" x2="1851.69" y2="1720.07" style="stroke:#FF0000;stroke-width:9.72"/>
	<line x1="1851.69" y1="1697.46" x2="1851.69" y2="1671.47" style="stroke:#FF0000;stroke-width:9.72"/>
	<line x1="1851.69" y1="1648.86" x2="1851.69" y2="1622.87" style="stroke:#FF0000;stroke-width:9.72"/>
	<line x1="1851.69" y1="1600.26" x2="1851.69" y2="1574.27" style="stroke:#FF0000;stroke-width:9.72"/>
	<line x1="1851.69" y1="1551.66" x2="1851.69" y2="1525.67" style="stroke:#FF0000;stroke-width:9.72"/>
	<line x1="1851.69" y1="1503.06" x2="1851.69" y2="1477.07" style="stroke:#FF0000;stroke-width:9.72"/>
	<line x1="1851.69" y1="1454.46" x2="1851.69" y2="1428.47" style="stroke:#FF0000;stroke-width:9.72"/>
	<line x1="1851.69" y1="1405.86" x2="1851.69" y2="1379.87" style="stroke:#FF0000;stroke-width:9.72"/>
	<line x1="1851.69" y1="1357.26" x2="1851.69" y2="1331.27" style="stroke:#FF0000;stroke-width:9.72"/>
	<line x1="1851.69" y1="1308.66" x2="1851.69" y2="1282.67" style="stroke:#FF0000;stroke-width:9.72"/>
	<line x1="1851.69" y1="1260.06" x2="1851.69" y2="1234.07" style="stroke:#FF0000;stroke-width:9.72"/>
	<line x1="1851.69" y1="1211.46" x2="1851.69" y2="1185.47" style="stroke:#FF0000;stroke-width:9.72"/>
	<line x1="1851.69" y1="1162.86" x2="1851.69" y2="1136.87" style="stroke:#FF0000;stroke-width:9.72"/>
	<line x1="1851.69" y1="1114.26" x2="1851.69" y2="1088.27" style="stroke:#FF0000;stroke-width:9.72"/>
	<line x1="1851.69" y1="1065.66" x2="1851.69" y2="1039.67" style="stroke:#FF0000;stroke-width:9.72"/>
	<line x1="1851.69" y1="1017.06" x2="1851.69" y2="991.07" style="stroke:#FF0000;stroke-width:9.72"/>
	<line x1="1851.69" y1="968.46" x2="1851.69" y2="942.47" style="stroke:#FF0000;stroke-width:9.72"/>
	<line x1="1851.69" y1="919.86" x2="1851.69" y2="893.87" style="stroke:#FF0000;stroke-width:9.72"/>
	<line x1="1851.69" y1="871.26" x2="1851.69" y2="845.27" style="stroke:#FF0000;stroke-width:9.72"/>
	<line x1="1851.69" y1="822.66" x2="1851.69" y2="796.67" style="stroke:#FF0000;stroke-width:9.72"/>
	<line x1="1851.69" y1="774.06" x2="1851.69" y2="748.07" style="stroke:#FF0000;stroke-width:9.72"/>
	<line x1="1851.69" y1="725.46" x2="1851.69" y2="699.47" style="stroke:#FF0000;stroke-width:9.72"/>
	<line x1="1851.69" y1="676.86" x2="1851.69" y2="650.87" style="stroke:#FF0000;stroke-width:9.72"/>
	<line x1="1851.69" y1="628.26" x2="1851.69" y2="602.27" style="stroke:#FF0000;stroke-width:9.72"/>
	<line x1="1851.69" y1="579.66" x2="1851.69" y2="553.67" style="stroke:#FF0000;stroke-width:9.72"/>
	<line x1="1851.69" y1="531.06" x2="1851.69" y2="505.07" style="stroke:#FF0000;stroke-width:9.72"/>
	<line x1="1851.69" y1="482.46" x2="1851.69" y2="456.47" style="stroke:#FF0000;stroke-width:9.72"/>
	<line x1="1851.69" y1="433.86" x2="1851.69" y2="407.87" style="stroke:#FF0000;stroke-width:9.72"/>
	<line x1="1851.69" y1="385.26" x2="1851.69" y2="359.27" style="stroke:#FF0000;stroke-width:9.72"/>
	<line x1="1851.69" y1="336.66" x2="1851.69" y2="310.67" style="stroke:#FF0000;stroke-width:9.72"/>
	<line x1="1851.69" y1="288.06" x2="1851.69" y2="262.07" style="stroke:#FF0000;stroke-width:9.72"/>
	<line x1="1851.69" y1="239.46" x2="1851.69" y2="213.47" style="stroke:#FF0000;stroke-width:9.72"/>
	<line x1="1851.69" y1="190.86" x2="1851.69" y2="164.87" style="stroke:#FF0000;stroke-width:9.72"/>
	<line x1="1851.69" y1="142.26" x2="1851.69" y2="116.27" style="stroke:#FF0000;stroke-width:9.72"/>
	<line x1="2136.38" y1="2766.66" x2="2136.38" y2="2701.86" style="stroke:#800080;stroke-width:9.72"/>
	<line x1="2136.38" y1="2669.46" x2="2136.38" y2="2604.66" style="stroke:#800080;stroke-width:9.72"/>
	<line x1="2136.38" y1="2572.26" x2="2136.38" y2="2507.46" style="stroke:#800080;stroke-width:9.72"/>
	<line x1="2136.38" y1="2475.06" x2="2136.38" y2="2410.26" style="stroke:#800080;stroke-width:9.72"/>
	<line x1="2136.38" y1="2377.86" x2="2136.38" y2="2313.06" style="stroke:#800080;stroke-width:9.72"/>
	<line x1="2136.38" y1="2280.66" x2="2136.38" y2="2215.86" style="stroke:#800080;stroke-width:9.72"/>
	<line x1="2136.38" y1="2183.46" x2="2136.38" y2="2118.66" style="stroke:#800080;stroke-width:9.72"/>
	<line x1="2136.38" y1="2086.26" x2="2136.38" y2="2021.46" style="stroke:#800080;stroke-width:9.72"/>
	<line x1="2136.38" y1="1989.06" x2="2136.38" y2="1924.26" style="stroke:#800080;stroke-width:9.72"/>
	<line x1="2136.38" y1="1891.86" x2="2136.38" y2="1827.06" style="stroke:#800080;stroke-width:9.72"/>
	<line x1="2136.38" y1="1794.66" x2="2136.38" y2="1729.86" style="stroke:#800080;stroke-width:9.72"/>
	<line x1="2136.38" y1="1697.46" x2="2136.38" y2="1632.66" style="stroke:#800080;stroke-width:9.72"/>
	<line x1="2136.38" y1="1600.26" x2="2136.38" y2="1535.46" style="stroke:#800080;stroke-width:9.72"/>
	<line x1="2136.38" y1="1503.06" x2="2136.38" y2="1438.26" style="stroke:#800080;stroke-width:9.72"/>
	<line x1="2136.38" y1="1405.86" x2="2136.38" y2="1341.06" style="stroke:#800080;stroke-width:9.72"/>
	<line x1="2136.38" y1="1308.66" x2="2136.38" y2="1243.86" style="stroke:#800080;stroke-width:9.72"/>
	<line x1="2136.38" y1="1211.46" x2="2136.38" y2="1146.66" style="stroke:#800080;stroke-width:9.72"/>
	<line x1="2136.38" y1="1114.26" x2="2136.38" y2="1049.46" style="stroke:#800080;stroke-width:9.72"/>
	<line x1="2136.38" y1="1017.06" x2="2136.38" y2="952.26" style="stroke:#800080;stroke-width:9.72"/>
	<line x1="2136.38" y1="919.86" x2="2136.38" y2="855.06" style="stroke:#800080;stroke-width:9.72"/>
	<line x1="2136.38" y1="822.66" x2="2136.38" y2="757.86" style="stroke:#800080;stroke-width:9.72"/>
	<line x1="2136.38" y1="725.46" x2="2136.38" y2="660.66" style="stroke:#800080;stroke-width:9.72"/>
	<line x1="2136.38" y1="628.26" x2="2136.38" y2="563.46" style="stroke:#800080;stroke-width:9.72"/>
	<line x1="2136.38" y1="531.06" x2="2136.38" y2="466.26" style="stroke:#800080;stroke-width:9.72"/>
	<line x1="2136.38" y1="433.86" x2="2136.38" y2="369.06" style="stroke:#800080;stroke-width:9.72"/>
	<line x1="2136.38" y1="336.66" x2="2136.38" y2="271.86" style="stroke:#800080;stroke-width:9.72"/>
	<line x1="2136.38" y1="239.46" x2="2136.38" y2="174.66" style="stroke:#800080;stroke-width:9.72"/>
	<line x1="2136.38" y1="142.26" x2="2136.38" y2="113.40" style="stroke:#800080;stroke-width:9.72"/>
	<rect x="1440.45" y="2343.43" width="141.75" height="258.19" style="fill:#E0E0E0"/>
	<rect x="1445.31" y="2348.29" width="132.03" height="248.47" style="fill:none;stroke:#808080;stroke-width:9.72"/>
	<line x1="1552.50" y1="2601.62" x2="1552.50" y2="2343.43" style="stroke:#808080;stroke-width:9.72"/>
	<line x1="1440.45" y1="2472.53" x2="1412.44" y2="2472.53" style="stroke:#808080;stroke-width:9.72"/>
	<line x1="1582.20" y1="2472.53" x2="1794.83" y2="2472.53" style="stroke:#808080;stroke-width:9.72"/>
	<line x1="1412.44" y1="2558.93" x2="1412.44" y2="2386.13" style="stroke:#808080;stroke-width:9.72"/>
	<line x1="1794.83" y1="2558.93" x2="1794.83" y2="2386.13" style="stroke:#808080;stroke-width:9.72"/>
	<rect x="1377.17" y="1827.23" width="201.66" height="258.02" style="fill:#E0E0E0"/>
	<rect x="1382.03" y="1832.08" width="191.94" height="248.30" style="fill:none;stroke:#808080;stroke-width:9.72"/>
	<line x1="1417.67" y1="2085.24" x2="1417.67" y2="1827.23" style="stroke:#808080;stroke-width:9.72"/>
	<line x1="1578.83" y1="1956.32" x2="1824.02" y2="1956.32" style="stroke:#808080;stroke-width:9.72"/>
	<line x1="1824.02" y1="2042.72" x2="1824.02" y2="1869.75" style="stroke:#808080;stroke-width:9.72"/>
	<rect x="1410.75" y="1311.02" width="204.36" height="258.02" style="fill:#E0E0E0"/>
	<rect x="1415.61" y="1315.88" width="194.64" height="248.30" style="fill:none;stroke:#808080;stroke-width:9.72"/>
	<line x1="1486.35" y1="1569.04" x2="1486.35" y2="1311.02" style="stroke:#808080;stroke-width:9.72"/>
	<line x1="1410.75" y1="1439.94" x2="1377.17" y2="1439.94" style="stroke:#808080;stroke-width:9.72"/>
	<line x1="1615.11" y1="1439.94" x2="1890.17" y2="1439.94" style="stroke:#808080;stroke-width:9.72"/>
	<line x1="1377.17" y1="1526.51" x2="1377.17" y2="1353.54" style="stroke:#808080;stroke-width:9.72"/>
	<line x1="1890.17" y1="1526.51" x2="1890.17" y2="1353.54" style="stroke:#808080;stroke-width:9.72"/>
	<rect x="1377.17" y="794.64" width="790.09" height="258.19" style="fill:#E0E0E0"/>
	<rect x="1382.03" y="799.50" width="780.37" height="248.47" style="fill:none;stroke:#808080;stroke-width:9.72"/>
	<line x1="1483.14" y1="1052.83" x2="1483.14" y2="794.64" style="stroke:#808080;stroke-width:9.72"/>
	<line x1="2167.26" y1="923.74" x2="3118.84" y2="923.74" style="stroke:#808080;stroke-width:9.72"/>
	<line x1="3118.84" y1="1010.14" x2="3118.84" y2="837.34" style="stroke:#808080;stroke-width:9.72"/>
	<rect x="1377.17" y="278.44" width="957.15" height="258.19" style="fill:#E0E0E0"/>
	<rect x="1382.03" y="283.30" width="947.43" height="248.47" style="fill:none;stroke:#808080;stroke-width:9.72"/>
	<line x1="1488.38" y1="536.63" x2="1488.38" y2="278.44" style="stroke:#808080;stroke-width:9.72"/>
	<line x1="2334.32" y1="407.53" x2="3032.94" y2="407.53" style="stroke:#808080;stroke-width:9.72"/>
	<line x1="3032.94" y1="493.93" x2="3032.94" y2="320.96" style="stroke:#808080;stroke-width:9.72"/>
	<circle cx="1976.57" cy="1956.32" r="21.74" style="fill:#A0A0A0"/>
	<circle cx="1976.57" cy="1956.32" r="16.88" style="fill:none;stroke:#A0A0A0;stroke-width:9.72"/>
	<circle cx="2036.64" cy="1956.32" r="21.74" style="fill:#A0A0A0"/>
	<circle cx="2036.64" cy="1956.32" r="16.88" style="fill:none;stroke:#A0A0A0;stroke-width:9.72"/>
	<circle cx="4513.73" cy="1956.32" r="21.74" style="fill:#A0A0A0"/>
	<circle cx="4513.73" cy="1956.32" r="16.88" style="fill:none;stroke:#A0A0A0;stroke-width:9.72"/>
	<circle cx="4842.11" cy="1956.32" r="21.74" style="fill:#A0A0A0"/>
	<circle cx="4842.11" cy="1956.32" r="16.88" style="fill:none;stroke:#A0A0A0;stroke-width:9.72"/>
	<circle cx="1946.70" cy="1439.94" r="21.74" style="fill:#A0A0A0"/>
	<circle cx="1946.70" cy="1439.94" r="16.88" style="fill:none;stroke:#A0A0A0;stroke-width:9.72"/>
	<circle cx="1977.24" cy="1439.94" r="21.74" style="fill:#A0A0A0"/>
	<circle cx="1977.24" cy="1439.94" r="16.88" style="fill:none;stroke:#A0A0A0;stroke-width:9.72"/>
	<circle cx="2029.89" cy="1439.94" r="21.74" style="fill:#A0A0A0"/>
	<circle cx="2029.89" cy="1439.94" r="16.88" style="fill:none;stroke:#A0A0A0;stroke-width:9.72"/>
	<circle cx="2077.31" cy="1439.94" r="21.74" style="fill:#A0A0A0"/>
	<circle cx="2077.31" cy="1439.94" r="16.88" style="fill:none;stroke:#A0A0A0;stroke-width:9.72"/>
	<circle cx="2158.65" cy="1439.94" r="21.74" style="fill:#A0A0A0"/>
	<circle cx="2158.65" cy="1439.94" r="16.88" style="fill:none;stroke:#A0A0A0;stroke-width:9.72"/>
	<circle cx="2245.73" cy="1439.94" r="21.74" style="fill:#A0A0A0"/>
	<circle cx="2245.73" cy="1439.94" r="16.88" style="fill:none;stroke:#A0A0A0;stroke-width:9.72"/>
	<circle cx="2419.54" cy="1439.94" r="21.74" style="fill:#A0A0A0"/>
	<circle cx="2419.54" cy="1439.94" r="16.88" style="fill:none;stroke:#A0A0A0;stroke-width:9.72"/>
	<circle cx="2694.26" cy="1439.94" r="21.74" style="fill:#A0A0A0"/>
	<circle cx="2694.26" cy="1439.94" r="16.88" style="fill:none;stroke:#A0A0A0;stroke-width:9.72"/>
	<circle cx="2756.36" cy="1439.94" r="21.74" style="fill:#A0A0A0"/>
	<circle cx="2756.36" cy="1439.94" r="16.88" style="fill:none;stroke:#A0A0A0;stroke-width:9.72"/>
	<circle cx="4419.90" cy="1439.94" r="21.74" style="fill:#A0A0A0"/>
	<circle cx="4419.90" cy="1439.94" r="16.88" style="fill:none;stroke:#A0A0A0;stroke-width:9.72"/>
	<circle cx="4068.23" cy="923.74" r="21.74" style="fill:#A0A0A0"/>
	<circle cx="4068.23" cy="923.74" r="16.88" style="fill:none;stroke:#A0A0A0;stroke-width:9.72"/>
	<circle cx="3867.41" cy="407.53" r="21.74" style="fill:#A0A0A0"/>
	<circle cx="3867.41" cy="407.53" r="16.88" style="fill:none;stroke:#A0A0A0;stroke-width:9.72"/>
	<circle cx="4119.19" cy="407.53" r="21.74" style="fill:#A0A0A0"/>
	<circle cx="4119.19" cy="407.53" r="16.88" style="fill:none;stroke:#A0A0A0;stroke-width:9.72"/>
	<circle cx="4892.57" cy="407.53" r="21.74" style="fill:#A0A0A0"/>
	<circle cx="4892.57" cy="407.53" r="16.88" style="fill:none;stroke:#A0A0A0;stroke-width:9.72"/>
	<text x="1661.85" y="209.72" style="font-family:'Helvetica';font-size:89.94px;fill:#FF0000" text-anchor="middle">USEPA</text>
	<text x="2278.63" y="209.72" style="font-family:'Helvetica';font-size:89.94px;fill:#800080" text-anchor="middle">WHO</text>
	<line x1="1263.77" y1="2766.66" x2="5286.60" y2="2766.66" style="stroke:#000000;stroke-width:6.48"/>
	<line x1="1377.17" y1="2766.66" x2="1377.17" y2="2811.54" style="stroke:#000000;stroke-width:6.48"/>
	<text x="1377.17" y="2912.86" style="font-family:'Helvetica';font-size:112.56px;fill:#000000" text-anchor="middle">Below LOD</text>
	<line x1="1851.69" y1="2766.66" x2="1851.69" y2="2811.54" style="stroke:#000000;stroke-width:6.48"/>
	<text x="1851.69" y="2912.86" style="font-family:'Helvetica';font-size:112.56px;fill:#000000" text-anchor="middle">50</text>
	<line x1="2136.38" y1="2766.66" x2="2136.38" y2="2811.54" style="stroke:#000000;stroke-width:6.48"/>
	<text x="2136.38" y="2912.86" style="font-family:'Helvetica';font-size:112.56px;fill:#000000" text-anchor="middle">80</text>
	<line x1="2326.05" y1="2766.66" x2="2326.05" y2="2811.54" style="stroke:#000000;stroke-width:6.48"/>
	<text x="2326.05" y="2912.86" style="font-family:'Helvetica';font-size:112.56px;fill:#000000" text-anchor="middle">100</text>
	<line x1="3275.10" y1="2766.66" x2="3275.10" y2="2811.54" style="stroke:#000000;stroke-width:6.48"/>
	<text x="3275.10" y="2912.86" style="font-family:'Helvetica';font-size:112.56px;fill:#000000" text-anchor="middle">200</text>
	<line x1="4224.15" y1="2766.66" x2="4224.15" y2="2811.54" style="stroke:#000000;stroke-width:6.48"/>
	<text x="4224.15" y="2912.86" style="font-family:'Helvetica';font-size:112.56px;fill:#000000" text-anchor="middle">300</text>
	<line x1="5173.20" y1="2766.66" x2="5173.20" y2="2811.54" style="stroke:#000000;stroke-width:6.48"/>
	<text x="5173.20" y="2912.86" style="font-family:'Helvetica';font-size:112.56px;fill:#000000" text-anchor="middle">400</text>
	<text x="3275.10" y="3070.31" style="font-family:'Helvetica';font-size:112.56px;fill:#000000" text-anchor="middle">Mn (μg/L) </text>
	<line x1="1263.77" y1="2766.66" x2="1263.77" y2="113.40" style="stroke:#000000;stroke-width:6.48"/>
	<text x="1218.71" y="2511.96" style="font-family:'Helvetica';font-size:112.56px;fill:#000000" text-anchor="end">Well (N=8)</text>
	<text x="1218.71" y="1995.76" style="font-family:'Helvetica';font-size:112.56px;fill:#000000" text-anchor="end">Piped Water (N=51)</text>
	<text x="1218.71" y="1479.38" style="font-family:'Helvetica';font-size:112.56px;fill:#000000" text-anchor="end">Borehole (N=69)</text>
	<text x="1218.71" y="963.17" style="font-family:'Helvetica';font-size:112.56px;fill:#000000" text-anchor="end">Sachet (N = 15)</text>
	<text x="1218.71" y="446.97" style="font-family:'Helvetica';font-size:112.56px;fill:#000000" text-anchor="end">River (N=27)</text>
</svg>
